<svg width="105" height="105" viewBox="0 0 105 105" fill="none" xmlns="http://www.w3.org/2000/svg">
<g clip-path="url(#clip0_4_67)">
<path d="M87.374 58.527L98.0263 73.7773C98.4659 74.4049 98.7463 75.1299 98.8437 75.8899C98.941 76.65 98.8522 77.4222 98.585 78.1403C98.3177 78.8585 97.8801 79.5009 97.3096 80.0124C96.7391 80.5239 96.053 80.8892 95.3101 81.0768L94.782 81.1747L94.2538 81.2156L80.3544 81.5149L75.2875 94.4681C75.0132 95.1703 74.5749 95.7967 74.0093 96.2952C73.4437 96.7937 72.7672 97.1497 72.0361 97.3337C71.305 97.5177 70.5405 97.5242 69.8064 97.3528C69.0722 97.1814 68.3896 96.837 67.8156 96.3483L67.3909 95.9388L67.0068 95.4497L56.3446 80.1955C62.8373 79.221 69.0167 76.758 74.3996 72.999C79.7825 69.24 84.223 64.2869 87.374 58.527ZM50.9911 80.6582L43.1143 97.5196C42.7959 98.2034 42.3185 98.8013 41.7221 99.2631C41.1256 99.725 40.4273 100.038 39.6855 100.175C38.9437 100.312 38.1799 100.269 37.4577 100.051C36.7356 99.8329 36.0762 99.4451 35.5344 98.9201L35.1355 98.4798L34.7875 97.9686L27.5689 86.0821L13.8337 88.1714C13.0768 88.2872 12.3032 88.2176 11.5792 87.9685C10.8552 87.7194 10.2024 87.2983 9.67705 86.7414C9.15167 86.1844 8.76935 85.5082 8.56293 84.7709C8.35651 84.0336 8.33215 83.2572 8.49196 82.5084L8.63688 81.9878L8.83178 81.4962L16.7176 64.6293C20.8077 69.7633 26.0296 73.8819 31.9753 76.6633C37.9209 79.4447 44.4288 80.8089 50.9911 80.6582ZM47.1674 5.10917L48.3 5.03026C56.8736 4.58467 65.2851 7.48654 71.7602 13.1238C78.2353 18.761 82.2677 26.6928 83.0069 35.2461L83.0713 36.1569L83.1165 37.0645L83.1315 38.2265L83.1076 39.3775L83.067 40.2261C82.9323 42.2871 82.605 44.3309 82.0896 46.3308L81.6684 47.8296L81.0891 49.5319C78.9124 55.4458 75.0935 60.6159 70.0808 64.435C65.0681 68.2541 59.0698 70.5637 52.7902 71.0925C46.5107 71.6213 40.2106 70.3474 34.6298 67.4204C29.049 64.4933 24.4193 60.0347 21.2842 54.5681L20.5506 53.2214L20.2514 52.6158L19.786 51.6257L19.2185 50.2789C19.0123 49.7562 18.8194 49.2283 18.6401 48.6957L18.247 47.443L17.9057 46.1858L17.7548 45.5389L17.4394 44.0327L17.1777 42.3223L17.0305 40.9487C16.291 32.3954 18.9026 23.8893 24.3144 17.2247C29.7262 10.56 37.5151 6.25789 46.038 5.22578L47.1674 5.10917Z" fill="white"/>
</g>
<defs>
<clipPath id="clip0_4_67">
<rect width="96.46" height="96.46" fill="white" transform="translate(0 8.30641) rotate(-4.94)"/>
</clipPath>
</defs>
</svg>
