<svg width="27" height="25" viewBox="0 0 27 25" fill="none" xmlns="http://www.w3.org/2000/svg">
<path d="M18.8181 4.05841L23.0342 8.46357C23.2118 8.64915 23.2118 8.95194 23.0342 9.13753L12.8259 19.8037L8.48825 20.3067C7.90865 20.3751 7.41787 19.8623 7.4833 19.2567L7.96474 14.7246L18.1731 4.05841C18.3507 3.87283 18.6405 3.87283 18.8181 4.05841ZM26.3902 2.94003L24.1092 0.556749C23.3988 -0.185583 22.2443 -0.185583 21.5291 0.556749L19.8745 2.2856C19.6968 2.47119 19.6968 2.77398 19.8745 2.95956L24.0905 7.36472C24.2682 7.5503 24.558 7.5503 24.7356 7.36472L26.3902 5.63587C27.1007 4.88865 27.1007 3.68236 26.3902 2.94003V2.94003ZM17.9487 16.9027V21.8744H2.99145V6.24634H13.7326C13.8822 6.24634 14.0224 6.18285 14.1299 6.07541L15.9996 4.1219C16.3548 3.75073 16.1024 3.12073 15.6023 3.12073H2.24359C1.00494 3.12073 0 4.17074 0 5.46493V22.6558C0 23.95 1.00494 25 2.24359 25H18.6966C19.9352 25 20.9402 23.95 20.9402 22.6558V14.9492C20.9402 14.4266 20.3372 14.1678 19.982 14.5341L18.1123 16.4876C18.0095 16.5999 17.9487 16.7464 17.9487 16.9027Z" fill="#5F5F5F"/>
</svg>
