<svg width="31" height="21" viewBox="0 0 31 21" fill="none" xmlns="http://www.w3.org/2000/svg">
<path d="M29.9059 6.63719C30.1381 6.47492 30.4834 6.62672 30.4834 6.8832V17.5875C30.4834 18.9746 29.2033 20.1 27.6256 20.1H2.85782C1.28007 20.1 0 18.9746 0 17.5875V6.88844C0 6.62672 0.339366 6.48016 0.577518 6.64242C1.91117 7.5532 3.67944 8.71 9.75231 12.5887C11.0086 13.3948 13.1281 15.0907 15.2417 15.0802C17.3672 15.0959 19.5284 13.3634 20.7371 12.5887C26.8099 8.71 28.5722 7.54797 29.9059 6.63719ZM15.2417 13.4C16.623 13.4209 18.6116 11.8716 19.6118 11.233C27.5125 6.19227 28.1138 5.75258 29.9357 4.49633C30.281 4.26078 30.4834 3.89438 30.4834 3.50703V2.5125C30.4834 1.12539 29.2033 0 27.6256 0H2.85782C1.28007 0 0 1.12539 0 2.5125V3.50703C0 3.89438 0.202429 4.25555 0.547749 4.49633C2.36961 5.74734 2.97094 6.19227 10.8716 11.233C11.8719 11.8716 13.8604 13.4209 15.2417 13.4Z" fill="white"/>
</svg>
