<svg width="103" height="72" viewBox="0 0 103 72" fill="none" xmlns="http://www.w3.org/2000/svg">
<path d="M98.3435 22.0957C99.0629 21.5121 100.214 21.9643 100.267 22.8256L102.48 58.7719C102.767 63.43 98.8493 67.4225 93.7333 67.6854L13.4228 71.8128C8.30686 72.0757 3.92349 68.5098 3.63667 63.8517L1.42436 27.923C1.37025 27.0441 2.44035 26.4954 3.24612 27.0006C7.75886 29.8369 13.7318 33.4269 34.2253 45.4399C38.4654 47.9375 45.6888 53.2795 52.5401 52.8921C59.4354 52.5907 66.085 46.4123 69.8438 43.6094C88.7333 29.5724 94.2074 25.3764 98.3435 22.0957ZM52.1927 47.2497C56.6758 47.0898 62.8035 41.5555 65.9147 39.2443C90.4907 21.0004 92.3497 19.4237 97.9974 14.9015C99.0684 14.0529 99.649 12.7888 99.5689 11.488L99.3633 8.14825C99.0764 3.49017 94.6931 -0.0757136 89.5771 0.187206L9.2666 4.31454C4.15066 4.57746 0.232704 8.56997 0.519525 13.228L0.72517 16.5678C0.805263 17.8686 1.53633 19.0477 2.70583 19.7987C8.87197 23.6962 10.9138 25.0901 37.5744 40.7008C40.9498 42.6786 47.7181 47.5502 52.1927 47.2497Z" fill="#050505"/>
</svg>
