<svg width="28" height="28" viewBox="0 0 28 28" fill="none" xmlns="http://www.w3.org/2000/svg">
<g clip-path="url(#clip0_1_60)">
<path d="M13.9811 27.4906C15.8398 27.4906 17.3475 25.9829 17.3475 24.1227H10.6148C10.6148 25.9829 12.1225 27.4906 13.9811 27.4906ZM25.3158 19.6123C24.2991 18.5198 22.3967 16.8764 22.3967 11.4929C22.3967 7.40406 19.5298 4.13086 15.664 3.32782V2.23114C15.664 1.30128 14.9105 0.54718 13.9811 0.54718C13.0518 0.54718 12.2982 1.30128 12.2982 2.23114V3.32782C8.43248 4.13086 5.56553 7.40406 5.56553 11.4929C5.56553 16.8764 3.66318 18.5198 2.64649 19.6123C2.33074 19.9517 2.19076 20.3574 2.1934 20.7547C2.19918 21.6178 2.87645 22.4387 3.88262 22.4387H24.0796C25.0858 22.4387 25.7636 21.6178 25.7689 20.7547C25.7715 20.3574 25.6315 19.9512 25.3158 19.6123Z" fill="white"/>
</g>
<defs>
<clipPath id="clip0_1_60">
<rect width="26.9434" height="26.9434" fill="white" transform="translate(0.509521 0.54718)"/>
</clipPath>
</defs>
</svg>
