<svg width="118" height="118" viewBox="0 0 118 118" fill="none" xmlns="http://www.w3.org/2000/svg">
<g clip-path="url(#clip0_59_1055)">
<path d="M27.4073 43.0687L24.1028 40.97L23.492 41.9254V43.0687H27.4073ZM58.73 43.0687L55.2297 41.3146C54.9306 41.9115 54.7891 42.575 54.8186 43.242C54.8482 43.9091 55.0479 44.5574 55.3986 45.1255C55.7494 45.6937 56.2396 46.1626 56.8227 46.4879C57.4057 46.8132 58.0623 46.984 58.73 46.984V43.0687ZM113.545 82.222L116.677 84.5712L117.46 83.5297V82.222H113.545ZM0 39.1533V117.46H7.83067V39.1533H0ZM30.7119 45.1673L51.8312 11.9809L45.2299 7.76802L24.1028 40.97L30.7119 45.1673ZM65.9107 19.9525L55.2297 41.3146L62.2303 44.8149L72.9192 23.4372L65.9107 19.9525ZM58.73 46.984H97.8833V39.1533H58.73V46.984ZM109.629 58.73V82.222H117.46V58.73H109.629ZM110.412 79.8728L91.6188 104.931L97.8833 109.629L116.677 84.5712L110.412 79.8728ZM82.222 109.629H43.0687V117.46H82.222V109.629ZM31.3227 97.8833V43.0687H23.492V97.8833H31.3227ZM97.8833 46.984C100.999 46.984 103.986 48.2215 106.189 50.4243C108.392 52.6271 109.629 55.6148 109.629 58.73H117.46C117.46 53.5379 115.397 48.5585 111.726 44.8872C108.055 41.2159 103.075 39.1533 97.8833 39.1533V46.984ZM43.0687 109.629C39.9534 109.629 36.9658 108.392 34.763 106.189C32.5602 103.986 31.3227 100.999 31.3227 97.8833H23.492C23.492 103.075 25.5545 108.055 29.2259 111.726C32.8972 115.397 37.8766 117.46 43.0687 117.46V109.629ZM62.8333 9.38114C66.4667 11.5581 67.8057 16.1625 65.9107 19.9525L72.9192 23.4372C74.7141 19.8476 75.0878 15.7206 73.9655 11.8674C72.8433 8.01425 70.3077 4.72675 66.8661 2.66242L62.8333 9.38114ZM91.6188 104.931C90.5247 106.39 89.106 107.574 87.475 108.389C85.844 109.205 84.0455 109.629 82.222 109.629V117.46C85.2612 117.46 88.2586 116.752 90.977 115.393C93.6953 114.034 96.0598 112.061 97.8833 109.629L91.6188 104.931ZM51.8312 11.9809C54.1804 8.26918 59.0745 7.1259 62.8333 9.38114L66.8739 2.66242C63.3136 0.525065 59.0594 -0.137343 55.0178 0.816369C50.9762 1.77008 47.4591 4.26449 45.2299 7.76802L51.8312 11.9809Z" fill="#010ED0"/>
</g>
<defs>
<clipPath id="clip0_59_1055">
<rect width="117.46" height="117.46" fill="white"/>
</clipPath>
</defs>
</svg>
